<?xml version="1.0" standalone="no"?>
<!DOCTYPE svg PUBLIC "-//W3C//DTD SVG 20010904//EN"
 "http://www.w3.org/TR/2001/REC-SVG-20010904/DTD/svg10.dtd">
<svg version="1.0" xmlns="http://www.w3.org/2000/svg"
 width="300.000000pt" height="300.000000pt" viewBox="0 0 300.000000 300.000000"
 preserveAspectRatio="xMidYMid meet">
<metadata>
Created by potrace 1.10, written by Peter Selinger 2001-2011
</metadata>
<g transform="translate(0.000000,300.000000) scale(0.100000,-0.100000)"
fill="#000000" stroke="none">
<path d="M1230 1885 c-53 -14 -194 -81 -235 -111 -19 -14 -19 -14 1 -28 21
-15 177 -139 204 -162 13 -10 25 -5 75 33 75 57 170 103 213 103 50 0 86 -24
137 -90 62 -81 102 -94 177 -57 49 24 149 99 156 116 1 4 -25 29 -59 55 l-61
47 -43 -40 c-59 -54 -87 -61 -150 -35 -18 7 -18 6 -6 -9 7 -9 17 -15 21 -12 4
3 13 -2 20 -10 15 -18 9 -19 -25 -3 -22 10 -30 20 -22 32 5 10 -48 56 -61 51
-7 -2 -11 -1 -8 4 9 14 -62 71 -121 98 -67 31 -142 37 -213 18z m108 -7 c9 -9
12 -9 12 2 0 10 5 9 19 -4 10 -9 25 -14 35 -10 9 4 16 1 16 -6 0 -9 -11 -10
-37 -6 -56 10 -73 16 -73 27 0 13 14 11 28 -3z m-77 -18 c5 0 38 -25 74 -55
35 -30 68 -55 73 -55 5 0 15 -7 22 -15 10 -12 10 -15 -4 -15 -9 0 -16 4 -16 9
0 5 -7 12 -16 15 -14 5 -15 4 -5 -8 14 -16 6 -40 -10 -30 -5 3 -6 10 -3 16 4
6 -2 6 -15 -1 -11 -7 -21 -14 -21 -17 0 -3 5 -2 10 1 6 3 10 2 10 -4 0 -15
-18 -23 -25 -11 -4 7 -19 4 -43 -11 -21 -11 -34 -18 -30 -14 4 4 -9 20 -28 37
-19 16 -31 35 -27 41 3 6 1 7 -6 3 -7 -5 -28 7 -53 29 -31 29 -42 34 -49 24
-7 -11 -9 -10 -9 5 0 12 5 16 15 12 8 -3 22 -3 31 1 13 5 13 8 2 15 -9 6 -6 7
10 3 16 -5 22 -2 22 10 0 13 6 15 31 10 24 -6 30 -4 24 6 -6 9 -3 11 9 6 10
-4 22 -7 27 -7z m199 -22 c0 -5 14 -28 31 -49 17 -21 26 -39 19 -39 -6 0 -8
-4 -5 -10 3 -5 2 -10 -4 -10 -5 0 -12 6 -14 13 -4 9 -8 9 -15 -2 -9 -12 -13
-12 -27 2 -15 16 -14 17 19 17 l35 0 -34 38 c-19 20 -30 39 -25 40 6 2 7 9 4
14 -4 7 -2 8 4 4 7 -4 12 -12 12 -18z m-49 -18 c26 -14 24 -40 -3 -40 -22 0
-58 26 -58 42 0 11 37 10 61 -2z m-239 -83 c45 -34 60 -70 34 -80 -15 -6 -47
14 -98 61 -21 20 -25 29 -17 39 17 20 33 16 81 -20z m663 -67 c49 -50 17 -49
-35 1 -30 29 -34 37 -19 36 10 -1 35 -18 54 -37z m-110 -1 c0 -8 8 -25 17 -39
17 -25 15 -75 -3 -65 -4 3 -6 12 -3 20 3 8 -4 26 -15 41 -23 29 -28 68 -9 62
7 -3 13 -11 13 -19z"/>
<path d="M1191 1833 l-44 -16 59 -52 c32 -29 59 -57 59 -63 0 -6 4 -14 9 -19
5 -5 6 -3 2 5 -5 9 -3 12 5 11 11 -2 72 23 87 36 5 5 -113 115 -123 114 -5 0
-30 -8 -54 -16z m98 -42 c36 -34 40 -56 10 -64 -14 -4 -32 5 -61 31 -37 33
-38 37 -22 49 26 19 38 16 73 -16z"/>
<path d="M1347 1513 c-15 -14 -7 -43 12 -43 26 0 36 17 21 35 -14 16 -23 19
-33 8z"/>
<path d="M1883 1509 c-16 -16 -5 -39 19 -39 14 0 19 6 16 22 -4 25 -19 33 -35
17z"/>
<path d="M1800 1416 c0 -97 11 -126 45 -126 22 0 27 17 10 33 -11 12 -15 38
-15 101 0 79 -2 86 -20 86 -19 0 -20 -7 -20 -94z"/>
<path d="M2116 1403 c3 -96 5 -108 21 -108 14 0 17 7 15 35 l-3 35 33 -38 c18
-20 41 -37 51 -37 23 0 22 5 -14 50 l-32 39 28 33 c25 30 26 33 10 37 -12 2
-30 -10 -47 -30 l-29 -34 3 63 c3 57 1 62 -18 62 -20 0 -21 -4 -18 -107z"/>
<path d="M780 1395 c0 -96 2 -106 18 -103 15 3 17 13 13 71 -1 37 1 67 5 67 5
0 18 -30 29 -67 28 -94 47 -95 76 -4 13 39 25 71 28 71 4 0 5 -31 3 -70 -3
-65 -2 -70 17 -70 20 0 21 5 21 105 l0 105 -27 0 c-26 0 -30 -6 -52 -76 -12
-41 -25 -73 -27 -71 -2 2 -15 35 -28 73 -20 60 -26 69 -49 72 l-27 3 0 -106z"/>
<path d="M1622 1398 l3 -102 65 3 c36 1 71 7 77 13 20 16 16 75 -4 87 -15 8
-16 12 -5 22 17 18 15 44 -4 63 -10 11 -34 16 -75 16 l-60 0 3 -102z m103 47
c0 -15 -8 -21 -32 -23 -30 -3 -33 -1 -33 23 0 24 3 26 33 23 24 -2 32 -8 32
-23z m10 -85 c0 -22 -5 -25 -37 -28 -36 -3 -38 -2 -38 28 0 30 2 31 38 28 32
-3 37 -6 37 -28z"/>
<path d="M1037 1432 c-10 -11 -17 -35 -17 -60 0 -52 38 -87 85 -78 39 8 54 25
61 67 8 50 -25 89 -75 89 -24 0 -44 -7 -54 -18z m86 -33 c5 -9 7 -28 3 -43 -5
-22 -11 -27 -34 -24 -21 2 -28 9 -30 31 -2 16 -1 35 2 44 7 18 46 13 59 -8z"/>
<path d="M1200 1373 c24 -67 31 -77 51 -77 20 0 27 10 51 74 15 41 28 76 28
78 0 1 -9 2 -19 2 -15 0 -24 -13 -37 -55 -10 -30 -21 -52 -25 -50 -4 3 -13 28
-20 55 -10 41 -17 50 -34 50 l-22 0 27 -77z"/>
<path d="M1340 1370 c0 -73 2 -80 20 -80 18 0 20 7 20 80 0 73 -2 80 -20 80
-18 0 -20 -7 -20 -80z"/>
<path d="M1424 1429 c-21 -23 -24 -90 -5 -113 28 -33 121 -26 121 9 0 12 -8
14 -41 9 -30 -5 -43 -3 -50 7 -15 24 -10 27 44 25 51 -1 52 -1 50 27 -3 41
-20 57 -63 57 -25 0 -43 -7 -56 -21z m84 -26 c2 -9 -8 -13 -32 -13 -28 0 -34
3 -29 16 7 18 54 16 61 -3z"/>
<path d="M1882 1373 c3 -65 6 -78 21 -81 15 -3 17 6 17 77 0 75 -2 81 -20 81
-19 0 -21 -5 -18 -77z"/>
<path d="M1950 1369 c0 -71 2 -80 18 -77 13 2 18 16 22 63 5 56 7 60 30 60 24
0 25 -3 28 -63 3 -53 6 -63 20 -60 13 2 18 16 20 60 4 72 -9 98 -48 98 -16 0
-32 -4 -35 -10 -3 -5 -11 -10 -16 -10 -6 0 -7 5 -4 10 3 6 -3 10 -14 10 -19 0
-21 -6 -21 -81z"/>
<path d="M990 1202 c-8 -4 -15 -19 -15 -34 -1 -25 3 -28 30 -27 23 1 25 3 8 6
-13 2 -23 8 -23 13 0 5 7 7 15 4 8 -4 15 -1 15 4 0 6 -8 13 -17 15 -17 4 -17
5 0 6 9 0 17 6 17 11 0 11 -8 12 -30 2z"/>
<path d="M1103 1203 c-18 -7 -16 -23 5 -40 16 -13 15 -13 -7 -7 -16 4 -21 3
-17 -5 9 -13 43 -15 50 -2 3 5 -1 14 -10 21 -11 10 -12 15 -3 20 14 9 -1 19
-18 13z"/>
<path d="M1245 1196 c-27 -20 -15 -51 20 -51 23 0 31 5 33 22 4 29 -28 47 -53
29z m38 -12 c9 -10 -4 -34 -19 -34 -8 0 -14 9 -14 20 0 19 19 27 33 14z"/>
<path d="M1320 1198 c0 -5 4 -8 9 -8 5 0 12 -12 14 -27 l4 -28 2 28 c0 15 6
27 11 27 6 0 10 4 10 9 0 5 -11 8 -25 7 -14 0 -25 -4 -25 -8z"/>
<path d="M1437 1203 c-4 -3 -7 -19 -7 -35 0 -26 3 -29 27 -26 34 4 43 36 17
55 -20 15 -28 16 -37 6z"/>
<path d="M1538 1203 c-12 -3 -18 -14 -18 -34 0 -25 3 -29 28 -28 23 2 24 2 5
6 -13 2 -23 9 -23 15 0 5 7 8 15 4 8 -3 15 -1 15 4 0 6 -8 10 -17 11 -12 1 -9
4 7 8 27 8 16 20 -12 14z"/>
<path d="M1603 1203 c-18 -6 -16 -23 5 -40 16 -14 16 -14 0 -9 -10 3 -18 1
-18 -4 0 -14 37 -12 46 1 4 7 -1 16 -12 22 -18 10 -18 11 1 17 14 5 15 8 4 12
-8 3 -20 3 -26 1z"/>
<path d="M1660 1198 c0 -5 5 -8 11 -8 7 0 9 -10 7 -25 -3 -14 -1 -25 3 -25 5
0 9 11 9 25 0 14 5 25 10 25 6 0 10 4 10 9 0 5 -11 8 -25 7 -14 0 -25 -4 -25
-8z"/>
<path d="M1821 1190 c-1 -23 -3 -24 -15 -7 -20 26 -36 21 -36 -13 0 -31 20
-43 20 -12 1 15 2 15 15 -2 19 -25 27 -16 22 26 -3 25 -4 27 -6 8z"/>
<path d="M1934 1198 c-3 -4 0 -8 5 -8 6 0 11 -11 11 -25 0 -14 5 -25 10 -25 6
0 10 11 10 25 0 14 5 25 12 25 6 0 8 3 4 7 -10 10 -46 11 -52 1z"/>
<path d="M2010 1176 c0 -20 5 -36 10 -36 6 0 10 13 10 29 0 17 -4 33 -10 36
-6 4 -10 -8 -10 -29z"/>
<path d="M2065 1196 c-24 -17 -15 -50 14 -54 39 -6 56 39 22 57 -13 7 -23 6
-36 -3z m35 -26 c0 -11 -6 -20 -14 -20 -18 0 -29 16 -21 30 11 18 35 11 35
-10z"/>
<path d="M2192 1191 c-2 -23 -3 -23 -20 -8 -26 24 -32 21 -32 -13 0 -16 5 -30
10 -30 6 0 10 8 10 17 0 15 2 14 14 -3 19 -25 28 -14 23 28 -2 22 -4 25 -5 9z"/>
<path d="M796 1184 c-9 -22 12 -46 38 -42 15 2 21 10 21 28 0 20 -6 26 -26 28
-18 2 -29 -3 -33 -14z m50 -5 c10 -17 -13 -36 -27 -22 -12 12 -4 33 11 33 5 0
12 -5 16 -11z"/>
<path d="M891 1168 c1 -26 3 -28 6 -9 l5 23 14 -21 c21 -30 34 -26 34 9 0 17
-4 30 -10 30 -5 0 -10 -8 -10 -17 -1 -17 -1 -17 -11 0 -16 27 -29 20 -28 -15z"/>
<path d="M1160 1170 c0 -16 5 -30 10 -30 6 0 10 5 10 10 0 6 7 10 15 10 8 0
15 9 15 20 0 15 -7 20 -25 20 -21 0 -25 -5 -25 -30z"/>
<path d="M1730 1170 c0 -16 5 -30 10 -30 6 0 10 14 10 30 0 17 -4 30 -10 30
-5 0 -10 -13 -10 -30z"/>
<path d="M1866 1172 l-14 -28 34 0 c19 0 34 1 34 3 0 11 -25 53 -31 53 -5 0
-15 -13 -23 -28z"/>
</g>
</svg>
